P2
30 5
15
2 2 2 0 0 4 0 0 6 6 6 0 0 8 0 0 0 0 10 0 0 12 0 12 0 0 15 15 15 0 
2 0 0 0 4 0 4 0 6 0 0 0 8 0 8 0 0 10 0 10 0 12 0 12 0 0 0 15 0 0 
2 2 2 0 4 0 4 0 6 0 0 0 8 0 8 0 0 10 10 10 0 12 12 12 0 0 0 15 0 0 
2 0 2 0 4 0 4 0 6 0 0 8 8 8 8 8 0 10 0 10 0 12 0 12 0 0 0 15 0 0 
2 2 2 0 0 4 0 0 6 0 0 8 0 0 0 8 0 10 0 10 0 12 0 12 0 15 0 15 0 0 
